<svg xmlns="http://www.w3.org/2000/svg" viewBox="0 0 701.04 292.29"><defs><style>.cls-1{fill:red;}.cls-1,.cls-2{fill-rule:evenodd;}</style></defs><title>Ativo 2</title><g id="Camada_2" data-name="Camada 2"><g id="Camada_1-2" data-name="Camada 1"><path class="cls-1" d="M16.83,224.07a9.19,9.19,0,0,1-7.32,3.56,9.18,9.18,0,0,1-6.74-2.77A9.15,9.15,0,0,1,0,218.13a8.23,8.23,0,0,1,2-5.75L50.1,147.63a26.09,26.09,0,0,1,32.08-7.72A23,23,0,0,1,90.9,147L139,211.39a13.9,13.9,0,0,1,2,3.07,8.52,8.52,0,0,1,.79,3.67,9.46,9.46,0,0,1-9.51,9.5,8.85,8.85,0,0,1-7.52-3.76L78.62,162.28a43.51,43.51,0,0,0-3.47-3.46,5.76,5.76,0,0,0-8.51,0,25.15,25.15,0,0,0-3.27,3.46Z"/><path class="cls-1" d="M58.62,206.25a12.33,12.33,0,0,1,21-8.72A12.33,12.33,0,0,1,62.18,215,11.88,11.88,0,0,1,58.62,206.25Z"/><path class="cls-1" d="M386.86,224A9.46,9.46,0,0,1,370,218.08a8.23,8.23,0,0,1,2-5.75l48.12-64.75a26.1,26.1,0,0,1,32.09-7.72,23.06,23.06,0,0,1,8.71,7.13L509,211.34a13.73,13.73,0,0,1,2,3.08,8.44,8.44,0,0,1,.79,3.66,9.46,9.46,0,0,1-9.5,9.5,8.86,8.86,0,0,1-7.53-3.76l-46.14-61.59a43.22,43.22,0,0,0-3.46-3.46,5.77,5.77,0,0,0-8.52,0,25.15,25.15,0,0,0-3.27,3.46Z"/><path class="cls-1" d="M428.64,206.2a12.16,12.16,0,1,1,3.56,8.71A11.88,11.88,0,0,1,428.64,206.2Z"/><path class="cls-1" d="M624.25,201.35c-14.1-18.86-28.09-37.68-42.32-56.43a19,19,0,0,0-15.38-7.68,19.25,19.25,0,0,0-19.06,19.56v61.29a9.48,9.48,0,1,0,19,0q0-31.07,0-62.15l50.94,67.94a8.24,8.24,0,0,0,13.75,0l50.94-67.94q0,31.08,0,62.15a9.49,9.49,0,1,0,19,0V156.8a19.13,19.13,0,0,0-34.45-11.88C652.37,163.67,638.35,182.49,624.25,201.35Z"/><path class="cls-1" d="M280.15,223.62H185.54a8.75,8.75,0,0,1-6.47-2.57,8.85,8.85,0,0,1-2.66-6.48V149.82a9.25,9.25,0,0,1,9.24-9.14h94.58c30,.07,54.25,18.8,54.22,41.7s-24.31,41.23-54.3,41.23Zm.84-18.94c12.74.12,34.48-6.56,34.5-22.49S293.72,159.52,281,159.61H195.34v45.07Z"/><path class="cls-1" d="M310.71,0h-116c-31.56.18-57,26.75-57,57.43s22.62,54.2,51.59,57.13H316.22A57.43,57.43,0,0,0,310.71,0ZM191.91,95.52c-19.17.11-34.82-16.83-34.93-38.31C156.87,36,172.28,19,191,19.06H313.81c24.28-.29,35.05,16.62,34.93,38.15-.11,21.13-15.16,38.31-33.88,38.31Z"/><path class="cls-2" d="M211.68,57.29a16.29,16.29,0,1,0-32.58,0,16.29,16.29,0,1,0,32.58,0Z"/><path class="cls-2" d="M294.05,57.29a16.29,16.29,0,1,1,32.58,0,16.29,16.29,0,1,1-32.58,0Z"/><path d="M401.12,254.67a11.49,11.49,0,0,1,4.54,1,11.64,11.64,0,0,1,6.13,6.21,11.8,11.8,0,0,1,.4,7.92,11.45,11.45,0,0,1-1.41,3,12.36,12.36,0,0,1-2.17,2.46,11.24,11.24,0,0,1-2.79,1.76l6.27,13.75a1.21,1.21,0,0,1,.13.45,1.09,1.09,0,0,1-.05.37c0,.09-.13.15-.27.19a3.48,3.48,0,0,1-.71.08h-1.35a.69.69,0,0,1-.65-.47L403,277.72a8.56,8.56,0,0,1-1,.19,10.06,10.06,0,0,1-1.16.06H388.69v12.95a.79.79,0,0,1-.9.9h-1.07a.8.8,0,0,1-.9-.9V255.5a1.7,1.7,0,0,1,.33-.64.71.71,0,0,1,.57-.19Zm-1.45,20.45h.4c.65,0,1.29,0,1.92-.05a6.48,6.48,0,0,0,1.88-.38,8.85,8.85,0,0,0,2.4-1.25,8.47,8.47,0,0,0,1.89-1.89,8.89,8.89,0,0,0,1.66-5.19,8.79,8.79,0,0,0-5.33-8.14,8.41,8.41,0,0,0-3.45-.7H388.69v17.6Z"/><path d="M467.55,273.29a19.08,19.08,0,0,1,2.59-9.61,19.84,19.84,0,0,1,3-3.86,18.71,18.71,0,0,1,3.87-3,19.75,19.75,0,0,1,4.55-1.92,18.86,18.86,0,0,1,10.11,0,19.56,19.56,0,0,1,4.55,1.92,19.16,19.16,0,0,1,3.85,3,19,19,0,0,1,3,3.86,19.79,19.79,0,0,1,1.92,4.58,18.58,18.58,0,0,1,.69,5.07,18.38,18.38,0,0,1-.69,5.05,19.67,19.67,0,0,1-1.92,4.54,18.82,18.82,0,0,1-3,3.84,19.44,19.44,0,0,1-3.85,3,19.12,19.12,0,0,1-4.55,1.91A19.11,19.11,0,0,1,477,289.71a19.22,19.22,0,0,1-3.86-3,19.48,19.48,0,0,1-3-3.85,18.93,18.93,0,0,1-2.59-9.59Zm2.93,0a15.64,15.64,0,0,0,1.26,6.27,16.14,16.14,0,0,0,8.57,8.57,15.81,15.81,0,0,0,6.29,1.26,15.52,15.52,0,0,0,4.28-.58,16.28,16.28,0,0,0,3.84-1.62,16.86,16.86,0,0,0,3.26-2.51,16.18,16.18,0,0,0,2.52-3.25,16.45,16.45,0,0,0,1.63-3.85,16.09,16.09,0,0,0,.57-4.29,15.45,15.45,0,0,0-1.27-6.25,16.6,16.6,0,0,0-3.46-5.11,16.3,16.3,0,0,0-5.12-3.46,15.46,15.46,0,0,0-6.25-1.28,15.7,15.7,0,0,0-4.29.58,16.25,16.25,0,0,0-3.86,1.62,15.66,15.66,0,0,0-3.26,2.53,16.56,16.56,0,0,0-2.51,3.26,16.27,16.27,0,0,0-1.63,3.85A15.86,15.86,0,0,0,470.48,273.27Z"/><path d="M578.42,254.67a10.14,10.14,0,0,1,3.87.74,9.54,9.54,0,0,1,3.14,2,9.39,9.39,0,0,1,2.09,3.08,9.55,9.55,0,0,1,.77,3.82,8.92,8.92,0,0,1-1.16,4.5,9.66,9.66,0,0,1-3.06,3.29,9.09,9.09,0,0,1,2.43,1.52,10.61,10.61,0,0,1,1.93,2.19,10.39,10.39,0,0,1,1.26,2.67,10,10,0,0,1,.45,3,10.17,10.17,0,0,1-.77,3.91,10.55,10.55,0,0,1-2.08,3.26,10.08,10.08,0,0,1-3.12,2.26,9.22,9.22,0,0,1-3.87.88H563.48a.79.79,0,0,1-.53-.22.94.94,0,0,1-.24-.5V255.62c0-.42.09-.68.27-.79a1.08,1.08,0,0,1,.55-.16Zm6.74,9.73a6.48,6.48,0,0,0-1.95-4.72,6.6,6.6,0,0,0-2.13-1.39,7.11,7.11,0,0,0-2.66-.5H565.84v13.28h12.55a6.79,6.79,0,0,0,4.8-1.92,6.49,6.49,0,0,0,2-4.75ZM587,281.53a7,7,0,0,0-.56-2.74,8.2,8.2,0,0,0-1.5-2.35,7.12,7.12,0,0,0-2.18-1.63,5.83,5.83,0,0,0-2.62-.61H565.84v14.5h14.49a5.78,5.78,0,0,0,2.55-.59,7.21,7.21,0,0,0,3.59-3.83A7.1,7.1,0,0,0,587,281.53Z"/><path d="M644.49,273.29a18.89,18.89,0,0,1,.68-5.06,19.29,19.29,0,0,1,1.91-4.55,19.51,19.51,0,0,1,3-3.86,18.39,18.39,0,0,1,3.86-3,19.93,19.93,0,0,1,4.55-1.92,18.86,18.86,0,0,1,10.11,0,19.56,19.56,0,0,1,4.55,1.92,19.16,19.16,0,0,1,3.85,3,19,19,0,0,1,3,3.86,19.79,19.79,0,0,1,1.92,4.58,18.58,18.58,0,0,1,.69,5.07,18.38,18.38,0,0,1-.69,5.05,19.67,19.67,0,0,1-1.92,4.54,18.82,18.82,0,0,1-3,3.84,19.44,19.44,0,0,1-3.85,3,19.12,19.12,0,0,1-4.55,1.91,19,19,0,0,1-18.52-4.89,18.89,18.89,0,0,1-4.89-8.38A18.84,18.84,0,0,1,644.49,273.29Zm2.93,0a15.64,15.64,0,0,0,1.26,6.27,16.11,16.11,0,0,0,8.58,8.57,15.73,15.73,0,0,0,6.28,1.26,15.52,15.52,0,0,0,4.28-.58,16.28,16.28,0,0,0,3.84-1.62,16.86,16.86,0,0,0,3.26-2.51,16.18,16.18,0,0,0,2.52-3.25,16.45,16.45,0,0,0,1.63-3.85,16.09,16.09,0,0,0,.57-4.29,15.45,15.45,0,0,0-1.27-6.25,16.6,16.6,0,0,0-3.46-5.11,16.3,16.3,0,0,0-5.12-3.46,16,16,0,0,0-10.53-.7,16.16,16.16,0,0,0-3.87,1.62,15.66,15.66,0,0,0-3.26,2.53,16.56,16.56,0,0,0-2.51,3.26A16.27,16.27,0,0,0,648,269,15.86,15.86,0,0,0,647.42,273.27Z"/></g></g></svg>